<svg xmlns="http://www.w3.org/2000/svg" viewBox="0, 0, 1006.16, 404.45" font-family="SauceCodePro Nerd Font, Source Code Pro, Courier" font-size="14"><g fill="#D3D3D3"><rect x="0" y="0" width="1006.16" height="404.45" fill="#000000"/><text x="20" y="34.55">$ tv summary</text><text x="20" y="53.55" font-weight="bold" fill="#cba6f7">File                                    </text><text x="372.86" y="53.55" font-weight="bold" fill="#cba6f7">Last Changed    </text><text x="524.08" y="53.55" font-weight="bold" fill="#cba6f7">Age       </text><text x="624.9" y="53.55" font-weight="bold" fill="#cba6f7">First Comm</text><text x="725.71" y="53.55" font-weight="bold" fill="#cba6f7">Commits</text><text x="801.33" y="53.55" font-weight="bold" fill="#cba6f7">Authors</text><text x="20" y="72.55">&#x2500;&#x2500;&#x2500;&#x2500;&#x2500;&#x2500;&#x2500;&#x2500;&#x2500;&#x2500;&#x2500;&#x2500;&#x2500;&#x2500;&#x2500;&#x2500;&#x2500;&#x2500;&#x2500;&#x2500;&#x2500;&#x2500;&#x2500;&#x2500;&#x2500;&#x2500;&#x2500;&#x2500;&#x2500;&#x2500;&#x2500;&#x2500;&#x2500;&#x2500;&#x2500;&#x2500;&#x2500;&#x2500;&#x2500;&#x2500;&#x2500;&#x2500;&#x2500;&#x2500;&#x2500;&#x2500;&#x2500;&#x2500;&#x2500;&#x2500;&#x2500;&#x2500;&#x2500;&#x2500;&#x2500;&#x2500;&#x2500;&#x2500;&#x2500;&#x2500;&#x2500;&#x2500;&#x2500;&#x2500;&#x2500;&#x2500;&#x2500;&#x2500;&#x2500;&#x2500;&#x2500;&#x2500;&#x2500;&#x2500;&#x2500;&#x2500;&#x2500;&#x2500;&#x2500;&#x2500;</text><text x="20" y="91.55" fill="#89dceb">.gitignore                              </text><text x="372.86" y="91.55">  2026-05-21 07:59  </text><text x="524.08" y="91.55" fill="#ADFF2F">30m ago   </text><text x="624.9" y="91.55">2026-05-21</text><text x="725.71" y="91.55">  1        </text><text x="801.33" y="91.55" fill="#a6e3a1">copilot-swe-agent[bot]</text><text x="20" y="110.55" fill="#89dceb">package-lock.json                       </text><text x="372.86" y="110.55">  2026-05-21 07:59  </text><text x="524.08" y="110.55" fill="#ADFF2F">30m ago   </text><text x="624.9" y="110.55">2026-05-21</text><text x="725.71" y="110.55">  2        </text><text x="801.33" y="110.55" fill="#a6e3a1">copilot-swe-agent[bot]</text><text x="20" y="129.55" fill="#89dceb">package.json                            </text><text x="372.86" y="129.55">  2026-05-21 07:59  </text><text x="524.08" y="129.55" fill="#ADFF2F">30m ago   </text><text x="624.9" y="129.55">2026-05-21</text><text x="725.71" y="129.55">  2        </text><text x="801.33" y="129.55" fill="#a6e3a1">copilot-swe-agent[bot]</text><text x="20" y="148.55" fill="#89dceb">src/cli.ts                              </text><text x="372.86" y="148.55">  2026-05-21 07:59  </text><text x="524.08" y="148.55" fill="#ADFF2F">30m ago   </text><text x="624.9" y="148.55">2026-05-21</text><text x="725.71" y="148.55">  2        </text><text x="801.33" y="148.55" fill="#a6e3a1">copilot-swe-agent[bot]</text><text x="20" y="167.55" fill="#89dceb">src/formatter.ts                        </text><text x="372.86" y="167.55">  2026-05-21 07:59  </text><text x="524.08" y="167.55" fill="#ADFF2F">30m ago   </text><text x="624.9" y="167.55">2026-05-21</text><text x="725.71" y="167.55">  2        </text><text x="801.33" y="167.55" fill="#a6e3a1">copilot-swe-agent[bot]</text><text x="20" y="186.55" fill="#89dceb">src/git.ts                              </text><text x="372.86" y="186.55">  2026-05-21 07:59  </text><text x="524.08" y="186.55" fill="#ADFF2F">30m ago   </text><text x="624.9" y="186.55">2026-05-21</text><text x="725.71" y="186.55">  2        </text><text x="801.33" y="186.55" fill="#a6e3a1">copilot-swe-agent[bot]</text><text x="20" y="205.55" fill="#89dceb">src/github-formatter.ts                 </text><text x="372.86" y="205.55">  2026-05-21 07:59  </text><text x="524.08" y="205.55" fill="#ADFF2F">30m ago   </text><text x="624.9" y="205.55">2026-05-21</text><text x="725.71" y="205.55">  1        </text><text x="801.33" y="205.55" fill="#a6e3a1">copilot-swe-agent[bot]</text><text x="20" y="224.55" fill="#89dceb">src/github.ts                           </text><text x="372.86" y="224.55">  2026-05-21 07:59  </text><text x="524.08" y="224.55" fill="#ADFF2F">30m ago   </text><text x="624.9" y="224.55">2026-05-21</text><text x="725.71" y="224.55">  1        </text><text x="801.33" y="224.55" fill="#a6e3a1">copilot-swe-agent[bot]</text><text x="20" y="243.55" fill="#89dceb">tests/git.test.ts                       </text><text x="372.86" y="243.55">  2026-05-21 07:59  </text><text x="524.08" y="243.55" fill="#ADFF2F">30m ago   </text><text x="624.9" y="243.55">2026-05-21</text><text x="725.71" y="243.55">  2        </text><text x="801.33" y="243.55" fill="#a6e3a1">copilot-swe-agent[bot]</text><text x="20" y="262.55" fill="#89dceb">tests/github.test.ts                    </text><text x="372.86" y="262.55">  2026-05-21 07:59  </text><text x="524.08" y="262.55" fill="#ADFF2F">30m ago   </text><text x="624.9" y="262.55">2026-05-21</text><text x="725.71" y="262.55">  1        </text><text x="801.33" y="262.55" fill="#a6e3a1">copilot-swe-agent[bot]</text><text x="20" y="281.55" fill="#89dceb">LICENSE                                 </text><text x="372.86" y="281.55">  2026-05-21 07:53  </text><text x="524.08" y="281.55" fill="#ADFF2F">36m ago   </text><text x="624.9" y="281.55">2026-05-21</text><text x="725.71" y="281.55">  1        </text><text x="801.33" y="281.55" fill="#a6e3a1">copilot-swe-agent[bot]</text><text x="20" y="300.55" fill="#89dceb">README.md                               </text><text x="372.86" y="300.55">  2026-05-21 07:53  </text><text x="524.08" y="300.55" fill="#ADFF2F">36m ago   </text><text x="624.9" y="300.55">2026-05-21</text><text x="725.71" y="300.55">  1        </text><text x="801.33" y="300.55" fill="#a6e3a1">copilot-swe-agent[bot]</text><text x="20" y="319.55" fill="#89dceb">jest.config.json                        </text><text x="372.86" y="319.55">  2026-05-21 07:53  </text><text x="524.08" y="319.55" fill="#ADFF2F">36m ago   </text><text x="624.9" y="319.55">2026-05-21</text><text x="725.71" y="319.55">  1        </text><text x="801.33" y="319.55" fill="#a6e3a1">copilot-swe-agent[bot]</text><text x="20" y="338.55" fill="#89dceb">tests/formatter.test.ts                 </text><text x="372.86" y="338.55">  2026-05-21 07:53  </text><text x="524.08" y="338.55" fill="#ADFF2F">36m ago   </text><text x="624.9" y="338.55">2026-05-21</text><text x="725.71" y="338.55">  1        </text><text x="801.33" y="338.55" fill="#a6e3a1">copilot-swe-agent[bot]</text><text x="20" y="357.55" fill="#89dceb">tsconfig.json                           </text><text x="372.86" y="357.55">  2026-05-21 07:53  </text><text x="524.08" y="357.55" fill="#ADFF2F">36m ago   </text><text x="624.9" y="357.55">2026-05-21</text><text x="725.71" y="357.55">  1        </text><text x="801.33" y="357.55" fill="#a6e3a1">copilot-swe-agent[bot]</text></g></svg>